<svg xmlns="http://www.w3.org/2000/svg" viewBox="0 0 100.49 100.35"><defs><style>.cls-1{fill:#fff;}</style></defs><g id="Слой_2" data-name="Слой 2"><g id="Layer_1" data-name="Layer 1"><path class="cls-1" d="M49.54,26.23c-14.82,0-15.28,7.14-15.28,26.53,0,15.12,1.67,22,15.28,22,14.29,0,15.28-7.61,15.28-24.48S63.83,26.23,49.54,26.23Zm7.3,29.41c0,7.83-.31,11.1-7.3,11.1s-7.3-3.19-7.3-10.94V45.31c0-7.83.31-11.1,7.3-11.1s7.3,3.19,7.3,10.94Z"/><path class="cls-1" d="M78.3,4.41A15.43,15.43,0,0,0,67.12,0H33.37A15.3,15.3,0,0,0,22.2,4.41L4.33,22.2A14.8,14.8,0,0,0,0,32.84V67.12A15.14,15.14,0,0,0,4.79,78.6l17,17a15.36,15.36,0,0,0,11.86,4.79H66.9a15.7,15.7,0,0,0,11.85-4.79l17-17a15.55,15.55,0,0,0,4.78-11.48V32.84A14.8,14.8,0,0,0,96.16,22.2ZM93.88,44.55c0,1.14-.53,1.74-1.6,1.74H87.19V42.72c0-2.66-.38-4-2.66-4H82.25c-2.28,0-2.66,1.37-2.66,4v3.57H76c-2.66,0-4,.38-4,2.67v2.43c0,2.28,1.37,2.66,4,2.66h3.57v3.57c0,2.66.38,4,2.66,4h2.28c2.28,0,2.66-1.37,2.66-4V54.05h5.09a1.45,1.45,0,0,1,1.6,1.52V67.12A8.8,8.8,0,0,1,91.07,74l-16.95,17a9.28,9.28,0,0,1-6.92,2.89H33.3a9.26,9.26,0,0,1-6.92-2.89L9.43,74a8.64,8.64,0,0,1-2.82-6.84V33.6a9.88,9.88,0,0,1,3-7.3L26.83,8.82A8.6,8.6,0,0,1,33.3,6.54H67.2a8.57,8.57,0,0,1,6.46,2.28L90.92,26.3a10.19,10.19,0,0,1,3,7.3Z"/></g></g></svg>