<svg xmlns="http://www.w3.org/2000/svg" viewBox="0 0 1013.23 226.14"><defs><style>.a{fill:#e94e1b;}.b{fill:#3c3c3b;}</style></defs><path class="a" d="M141.35,23.31C132,7.09,115-.14,91.57,0,74.21.11,58.27,4.81,45,13.82,25.08,27.28,17.15,46.52,12.43,58.18-8.83,110.59,2.68,196,7,222.67a4,4,0,0,0,6.94,2L119.35,106.42C158,60.64,148.73,36.13,141.35,23.31Zm-35.3,61.32c-26.11,32-52.28,68.45-72.94,61.12-14.37-5.1-9-38.2-5.34-53.67C32.32,72.64,38.85,44.75,62.16,30a52.9,52.9,0,0,1,27.5-8.16C103.49,21.75,113.53,26,119,35.59,123.39,43.16,128.43,57.25,106.05,84.63Z" transform="translate(0 0)"/><path class="b" d="M245.92,140.56c0,38.2-26.46,54.85-51.44,54.85-28,0-49.51-20.49-49.51-53.15,0-34.57,22.62-54.85,51.22-54.85C225.86,87.41,245.92,109,245.92,140.56Zm-82,1.06c0,22.63,13,39.7,31.38,39.7,17.93,0,31.37-16.86,31.37-40.12,0-17.5-8.75-39.7-31-39.7S164,122,164,141.62Z" transform="translate(0 0)"/><path class="b" d="M356.05,164.89c0,10.67.22,20.06.86,28.17H340.26l-1.07-16.86h-.42a38.89,38.89,0,0,1-34.15,19.21c-16.22,0-35.65-9-35.65-45.25V89.76h18.79V147c0,19.64,6,32.87,23.05,32.87,12.59,0,21.34-8.75,24.76-17.08a27.61,27.61,0,0,0,1.7-9.6V89.76h18.78Z" transform="translate(0 0)"/><path class="b" d="M409.84,60.09V89.76h26.89v14.3H409.84v55.71c0,12.8,3.63,20.06,14.09,20.06a41.76,41.76,0,0,0,10.88-1.28l.86,14.08c-3.63,1.5-9.39,2.57-16.65,2.57-8.75,0-15.8-2.78-20.28-7.9-5.33-5.55-7.25-14.73-7.25-26.89V104.06h-16V89.76h16V65Z" transform="translate(0 0)"/><path class="b" d="M467,144.83c.43,25.39,16.65,35.85,35.43,35.85,13.45,0,21.56-2.35,28.6-5.33l3.2,13.44c-6.61,3-17.92,6.41-34.36,6.41-31.8,0-50.8-20.92-50.8-52.08s18.36-55.71,48.45-55.71c33.73,0,42.69,29.67,42.69,48.66a71.74,71.74,0,0,1-.64,8.76Zm55.07-13.45c.21-11.95-4.91-30.52-26-30.52-19,0-27.32,17.5-28.81,30.52Z" transform="translate(0 0)"/><path class="b" d="M561.59,170.44a65.85,65.85,0,0,0,33.3,9.39c19,0,30.09-10,30.09-24.55,0-13.44-7.68-21.13-27.1-28.6-23.48-8.32-38-20.49-38-40.76,0-22.41,18.57-39.06,46.52-39.06,14.73,0,25.4,3.41,31.81,7l-5.13,15.16a57.17,57.17,0,0,0-27.32-6.83c-19.63,0-27.1,11.73-27.1,21.55,0,13.45,8.75,20.07,28.6,27.75C631.6,120.92,644,132.66,644,153.79c0,22.2-16.44,41.41-50.37,41.41-13.87,0-29-4.06-36.71-9.18Z" transform="translate(0 0)"/><path class="b" d="M690.72,60.09V89.76h26.9v14.3h-26.9v55.71c0,12.8,3.63,20.06,14.09,20.06a41.85,41.85,0,0,0,10.89-1.28l.85,14.08c-3.63,1.5-9.39,2.57-16.65,2.57-8.75,0-15.79-2.78-20.27-7.9-5.34-5.55-7.26-14.73-7.26-26.89V104.06h-16V89.76h16V65Z" transform="translate(0 0)"/><path class="b" d="M831,140.56c0,38.2-26.46,54.85-51.44,54.85-28,0-49.51-20.49-49.51-53.15,0-34.57,22.62-54.85,51.22-54.85C810.89,87.41,831,109,831,140.56Zm-82,1.06c0,22.63,13,39.7,31.38,39.7,17.93,0,31.37-16.86,31.37-40.12,0-17.5-8.75-39.7-31-39.7S749,122,749,141.62Z" transform="translate(0 0)"/><path class="b" d="M854.64,122c0-12.17-.21-22.63-.85-32.23h16.43l.64,20.28h.86c4.69-13.88,16-22.63,28.6-22.63a20.12,20.12,0,0,1,5.33.64v17.72a28,28,0,0,0-6.4-.64c-13.23,0-22.62,10-25.18,24.11a52.61,52.61,0,0,0-.86,8.76v55.06H854.64Z" transform="translate(0 0)"/><path class="b" d="M936.6,88.76l29.67,75.17q13.54-37.59,27.11-75.17h19.84s-19.21,49-26.11,67.65c-7.89,21.31-10.25,30.1-19.17,45.34-8,13.66-16.58,20.66-22.68,23.84-2.58-5.27-7-12.91-7-12.91,8.49-6.52,12-9.23,15.82-17.34,3.51-7.37,1.28-14.65-.78-19.39-9.63-22.08-37.21-87.19-37.21-87.19Z" transform="translate(0 0)"/><path class="a" d="M82.84,43.91A28.6,28.6,0,0,0,68,48.31c-12.57,8-16.09,23-18.55,33.49-2,8.35-4.87,26.2,2.88,29,11.15,4,25.26-15.73,39.35-33,12.07-14.76,9.35-22.37,7-26.45C95.71,46.17,90.3,43.87,82.84,43.91Z" transform="translate(0 0)"/><path class="b" d="M143.77,246.58" transform="translate(0 0)"/><path class="b" d="M143.73,211.41c-10.25-16.69-54.06-71.65-29.13-99.65l-24.93,28c-8.73,9.76,25,57.76,40.24,85.34a2,2,0,0,0,3.26.36l10.35-11.67A2,2,0,0,0,143.73,211.41Z" transform="translate(0 0)"/><path class="b" d="M1005.24,192.2" transform="translate(0 0)"/></svg>